HIERARCHY
ROOT SpineBase
{
  OFFSET 0.000000 0.000000 0.000000
  CHANNELS 6 Xposition Yposition Zposition Zrotation Xrotation Yrotation
  JOINT SpineMid
  {
    OFFSET -0.000000 30.583526 0.000000
    CHANNELS 3 Zrotation Xrotation Yrotation
    JOINT SpineShoulder
    {
      OFFSET 0.123302 22.798013 -0.745259
      CHANNELS 3 Zrotation Xrotation Yrotation
      JOINT Neck
      {
        OFFSET 0.079905 7.566565 -0.575483
        CHANNELS 3 Zrotation Xrotation Yrotation
        JOINT Head
        {
          OFFSET -5.270453 13.042248 0.920466
          CHANNELS 3 Zrotation Xrotation Yrotation
          End Site
          {
            OFFSET 0 0 0
          }
        }
      }
      JOINT ShoulderLeft
      {
        OFFSET -13.727934 -5.319098 6.302814
        CHANNELS 3 Zrotation Xrotation Yrotation
        JOINT ElbowLeft
        {
          OFFSET -1.405575 -27.607123 1.215933
          CHANNELS 3 Zrotation Xrotation Yrotation
          JOINT WristLeft
          {
            OFFSET -0.579853 -20.057685 -6.348413
            CHANNELS 3 Zrotation Xrotation Yrotation
            JOINT HandLeft
            {
              OFFSET 0.733331 -3.701442 -1.416035
              CHANNELS 3 Zrotation Xrotation Yrotation
              JOINT HandTipLeft
              {
                OFFSET 0.554054 -4.185369 -1.107739
                CHANNELS 3 Zrotation Xrotation Yrotation
                End Site
                {
                  OFFSET 0 0 0
                }
              }
              JOINT ThumbLeft
              {
                OFFSET 2.780435 0.674566 -3.062020
                CHANNELS 3 Zrotation Xrotation Yrotation
                End Site
                {
                  OFFSET 0 0 0
                }
              }
            }
          }
        }
      }
      JOINT ShoulderRight
      {
        OFFSET 11.413173 -2.506700 -9.648751
        CHANNELS 3 Zrotation Xrotation Yrotation
        JOINT ElbowRight
        {
          OFFSET 6.357432 -21.596431 -2.889327
          CHANNELS 3 Zrotation Xrotation Yrotation
          JOINT WristRight
          {
            OFFSET -0.644950 -22.414418 -4.451872
            CHANNELS 3 Zrotation Xrotation Yrotation
            JOINT HandRight
            {
              OFFSET -1.728636 -4.538660 -0.585338
              CHANNELS 3 Zrotation Xrotation Yrotation
              JOINT HandTipRight
              {
                OFFSET -0.167793 -6.068654 0.533211
                CHANNELS 3 Zrotation Xrotation Yrotation
                End Site
                {
                  OFFSET 0 0 0
                }
              }
              JOINT ThumbRight
              {
                OFFSET -2.561310 1.102161 -1.483522
                CHANNELS 3 Zrotation Xrotation Yrotation
                End Site
                {
                  OFFSET 0 0 0
                }
              }
            }
          }
        }
      }
    }
  }
  JOINT HipLeft
  {
    OFFSET -5.794582 -0.131426 -0.309309
    CHANNELS 3 Zrotation Xrotation Yrotation
    JOINT KneeLeft
    {
      OFFSET 2.004953 -28.027559 3.033849
      CHANNELS 3 Zrotation Xrotation Yrotation
      JOINT AnkleLeft
      {
        OFFSET 0.860823 -30.129460 6.127939
        CHANNELS 3 Zrotation Xrotation Yrotation
        JOINT FootLeft
        {
          OFFSET -2.819803 -6.729455 -4.277671
          CHANNELS 3 Zrotation Xrotation Yrotation
          End Site
          {
            OFFSET 0 0 0
          }
        }
      }
    }
  }
  JOINT HipRight
  {
    OFFSET 6.311585 2.013863 -6.938057
    CHANNELS 3 Zrotation Xrotation Yrotation
    JOINT KneeRight
    {
      OFFSET 9.095297 -25.090625 -1.350338
      CHANNELS 3 Zrotation Xrotation Yrotation
      JOINT AnkleRight
      {
        OFFSET 8.579422 -31.573294 5.707687
        CHANNELS 3 Zrotation Xrotation Yrotation
        JOINT FootRight
        {
          OFFSET -0.130643 -6.283208 -6.824963
          CHANNELS 3 Zrotation Xrotation Yrotation
          End Site
          {
            OFFSET 0 0 0
          }
        }
      }
    }
  }
}
MOTION
Frames: 10
Frame Time: 0.033333
-29.566707 65.498549 391.535067 0.000000 0.000000 28.702968 -0.000000 -0.000000 -28.702968 -0.000000 0.000000 0.000000 -0.000000 0.000000 0.000000 0.000000 0.000000 0.000000 -0.000000 0.000000 0.000000 -0.000000 0.000000 0.000000 -0.000000 0.000000 0.000000 -0.000000 0.000000 0.000000 0.000000 0.000000 0.000000 0.000000 0.000000 0.000000 -0.000000 0.000000 0.000000 -0.000000 0.000000 0.000000 -0.000000 0.000000 0.000000 -0.000000 0.000000 0.000000 0.000000 0.000000 0.000000 0.000000 0.000000 0.000000 -0.000000 -0.000000 -28.702968 -0.000000 0.000000 0.000000 -0.000000 0.000000 0.000000 0.000000 0.000000 0.000000 -0.000000 -0.000000 -28.702968 -0.000000 0.000000 0.000000 -0.000000 0.000000 0.000000 0.000000 0.000000 0.000000
-29.509220 65.544814 391.405429 0.012854 0.042404 28.406570 -0.031479 -0.031183 -28.406584 -0.000000 0.000000 0.000000 -0.000000 0.000000 0.000000 0.000000 0.000000 0.000000 0.883885 1.320082 -0.038500 -0.883232 -1.320519 0.018138 -0.844957 -1.130328 0.091451 2.393278 4.950352 -0.090941 0.000000 0.000000 0.000000 0.000000 0.000000 0.000000 -0.000000 0.000000 0.000000 -0.000000 0.000000 0.000000 -1.185647 0.186815 0.083349 -1.522235 0.048147 -0.327077 0.000000 0.000000 0.000000 0.000000 0.000000 0.000000 -0.031479 -0.031183 -28.406584 -0.000000 0.000000 0.000000 -0.536075 2.354250 -0.625443 0.000000 0.000000 0.000000 -0.031479 -0.031183 -28.406584 -0.000000 0.000000 0.000000 0.319513 -1.783800 -0.310260 0.000000 0.000000 0.000000
-29.462393 65.580827 391.311071 0.022355 0.083727 28.225157 -0.059294 -0.063199 -28.225206 -0.000000 0.000000 0.000000 -0.000000 0.000000 0.000000 0.000000 0.000000 0.000000 1.603638 2.303072 -0.079000 -1.671516 -1.207971 0.002729 -1.446614 -3.267800 0.103262 4.565832 9.187030 -0.344168 0.000000 0.000000 0.000000 0.000000 0.000000 0.000000 -0.000000 0.000000 0.000000 -0.725963 -0.586700 0.157486 -1.378253 0.679472 0.094308 -2.685578 0.664125 -0.652266 0.000000 0.000000 0.000000 0.000000 0.000000 0.000000 -0.059294 -0.063199 -28.225206 -0.000000 0.000000 0.000000 -1.022864 4.279949 -1.076178 0.000000 0.000000 0.000000 -0.059294 -0.063199 -28.225206 -0.000000 0.000000 0.000000 0.553823 -3.094865 -0.538092 0.000000 0.000000 0.000000
-29.426226 65.606591 391.251995 0.028494 0.123957 28.160476 -0.083622 -0.095837 -28.160577 -0.000000 0.000000 0.000000 -0.000000 0.000000 0.000000 0.000000 0.000000 0.000000 2.157696 2.947771 -0.110825 -2.235742 -1.370910 -0.023197 -1.838505 -4.596947 0.054310 6.325707 12.393046 -0.670873 0.000000 0.000000 0.000000 0.000000 0.000000 0.000000 -0.000000 0.000000 0.000000 -0.979793 -0.793214 0.210887 -1.793524 0.507954 0.271907 -3.554678 1.840770 -0.954563 0.000000 0.000000 0.000000 0.000000 0.000000 0.000000 -0.083622 -0.095837 -28.160577 -0.000000 0.000000 0.000000 -1.477385 5.804730 -1.368751 0.000000 0.000000 0.000000 -0.083622 -0.095837 -28.160577 -0.000000 0.000000 0.000000 0.710524 -3.945368 -0.691199 0.000000 0.000000 0.000000
-29.400719 65.622104 391.228199 0.031267 0.163085 28.213488 -0.104653 -0.128928 -28.213650 -0.000000 0.000000 0.000000 -0.000000 0.000000 0.000000 0.000000 0.000000 0.000000 2.545088 3.254168 -0.126218 -2.617480 -1.248306 -0.055114 -1.901048 -5.577518 -0.047751 7.499595 14.368082 -0.958465 0.000000 0.000000 0.000000 0.000000 0.000000 0.000000 0.734884 0.548556 0.059494 -1.900076 -1.489575 0.171294 -2.036058 -0.008682 0.529249 -4.170953 3.593119 -1.229777 0.000000 0.000000 0.000000 0.000000 0.000000 0.000000 -0.604458 -0.764385 -28.289610 0.138976 0.796417 0.071098 -1.912234 6.953563 -1.516199 0.000000 0.000000 0.000000 -0.104653 -0.128928 -28.213650 -0.000000 0.000000 0.000000 0.794537 -4.344276 -0.774562 0.000000 0.000000 0.000000
-29.385873 65.627368 391.239685 0.030668 0.201101 28.384359 -0.122582 -0.162345 -28.384586 -0.000000 0.000000 0.000000 -0.000000 0.000000 0.000000 0.000000 0.000000 0.000000 2.765302 3.222394 -0.120382 -2.816566 -0.845623 -0.088093 -1.597492 -6.134700 -0.185479 7.986177 15.050745 -1.112294 0.000000 0.000000 0.000000 0.000000 0.000000 0.000000 0.886186 0.598532 0.052845 -2.166160 -1.634087 0.197084 -2.103191 -0.881877 0.869324 -4.554075 5.959694 -1.488020 0.000000 0.000000 0.000000 0.000000 0.000000 0.000000 -0.664497 -0.826569 -28.466864 0.159824 0.842198 0.076427 -2.336417 7.747011 -1.528592 0.000000 0.000000 0.000000 -0.122582 -0.162345 -28.384586 -0.000000 0.000000 0.000000 0.808294 -4.295783 -0.790638 0.000000 0.000000 0.000000
-29.377233 65.629358 391.280873 0.032209 0.238237 28.619595 -0.142388 -0.193701 -28.619903 -0.000000 0.000000 0.000000 -0.000000 0.000000 0.000000 0.000000 0.000000 0.000000 2.554236 1.883427 -0.025422 -2.390464 0.488729 -0.175611 -2.401409 -5.720704 0.154696 8.497659 11.781573 -1.562704 0.000000 0.000000 0.000000 0.000000 0.000000 0.000000 0.998577 0.568951 0.028834 -2.351058 -1.641709 0.234890 -1.984199 -2.485671 1.423180 -3.879365 10.827464 -1.825536 0.000000 0.000000 0.000000 0.000000 0.000000 0.000000 -0.718367 -0.884356 -28.707282 0.173476 0.882401 0.080624 -2.856095 8.437942 -1.433223 0.000000 0.000000 0.000000 -0.142388 -0.193701 -28.619903 -0.000000 0.000000 0.000000 0.746324 -3.365959 -0.742539 0.000000 0.000000 0.000000
-29.364074 65.612947 391.363426 0.062035 0.292943 28.985199 -0.196221 -0.226189 -28.985745 -0.000000 0.000000 0.000000 -0.863472 0.248739 0.163807 0.000000 0.000000 0.000000 2.706858 1.707221 -0.008037 -2.578469 1.374331 -0.199951 -0.953689 -9.000468 -0.834357 7.827743 12.905786 -1.248295 0.000000 0.000000 0.000000 0.000000 0.000000 0.000000 1.091960 0.572081 0.016802 -2.448279 -1.733329 0.248129 -1.523888 -4.669902 2.181799 -4.281557 14.882961 -2.337127 0.000000 0.000000 0.000000 0.000000 0.000000 0.000000 -0.796962 -0.852881 -29.075391 0.220529 0.839624 0.082373 -3.355029 7.834151 -0.875859 0.000000 0.000000 0.000000 -0.196221 -0.226189 -28.985745 -0.000000 0.000000 0.000000 0.530674 -1.848095 -0.538935 0.000000 0.000000 0.000000
-29.380491 65.583359 391.494454 0.050133 0.322177 29.563715 -0.202567 -0.255496 -29.564308 -0.000000 0.000000 0.000000 -0.995896 0.192956 0.150450 0.000000 0.000000 0.000000 2.540137 1.501265 0.002176 -2.209459 1.423025 -0.255414 -0.464837 -5.417875 -0.271073 6.143464 7.309274 -1.017372 0.000000 0.000000 0.000000 0.000000 0.000000 0.000000 1.051017 0.471903 -0.006009 -2.324963 -1.681987 0.261693 -0.918082 -6.356275 2.769293 -2.835595 17.446526 -2.948867 0.000000 0.000000 0.000000 0.000000 0.000000 0.000000 -0.202567 -0.255496 -29.564308 -0.000000 0.000000 0.000000 -3.821652 7.634343 -0.490770 0.000000 0.000000 0.000000 -0.202567 -0.255496 -29.564308 -0.000000 0.000000 0.000000 0.414237 -0.670555 -0.436394 0.000000 0.000000 0.000000
-29.435249 65.552768 391.655411 -0.018618 0.345493 30.336536 -0.158433 -0.307589 -30.336905 -0.000000 0.000000 0.000000 -1.043001 0.076613 0.105653 0.000000 0.000000 0.000000 2.492609 2.371428 -0.062678 -2.309460 0.797567 -0.185531 0.803729 -3.223973 -0.186337 5.762822 4.726349 -1.050886 0.000000 0.000000 0.000000 0.000000 0.000000 0.000000 1.066963 0.413711 -0.024736 -2.145011 -1.520436 0.245226 -0.389354 -6.950557 2.940578 -3.802788 20.007212 -2.890157 0.000000 0.000000 0.000000 0.000000 0.000000 0.000000 -0.158433 -0.307589 -30.336905 -0.000000 0.000000 0.000000 -4.136370 7.507538 -0.235003 0.000000 0.000000 0.000000 -0.158433 -0.307589 -30.336905 -0.000000 0.000000 0.000000 0.230183 0.740567 -0.265066 0.000000 0.000000 0.000000
